<svg width="251" height="180" viewBox="0 0 251 180" fill="none" xmlns="http://www.w3.org/2000/svg">
<path d="M74.2813 161.31C81.346 161.31 87.9783 159.94 94.178 157.2C100.522 154.317 106.001 150.28 110.614 145.089C115.228 139.899 118.905 133.627 121.644 126.274C124.528 118.777 125.969 110.414 125.969 101.187C125.969 91.9595 124.6 83.6692 121.86 76.316C119.121 68.8187 115.372 62.4749 110.614 57.2844C105.856 52.094 100.306 48.1291 93.9617 45.3897C87.762 42.6503 81.2018 41.2806 74.2813 41.2806C65.4863 41.2806 58.2774 43.1549 52.6544 46.9035C47.0314 50.508 42.1294 54.9055 37.9482 60.0959V0.838379H0.75V160.877L38.3807 144.224C42.1294 148.838 46.8152 152.875 52.4382 156.335C58.2053 159.651 65.4863 161.31 74.2813 161.31ZM89.42 100.971C89.42 105.296 88.6992 109.261 87.2574 112.865C85.9598 116.47 84.1575 119.57 81.8507 122.165C79.5438 124.616 76.7323 126.562 73.4162 128.004C70.2442 129.446 66.856 130.167 63.2516 130.167C59.6471 130.167 56.2589 129.446 53.087 128.004C49.915 126.562 47.1756 124.544 44.8688 121.949C42.5619 119.353 40.6876 116.326 39.2458 112.865C37.9482 109.405 37.2994 105.584 37.2994 101.403C37.2994 97.222 37.9482 93.3292 39.2458 89.7247C40.6876 86.1202 42.5619 83.0925 44.8688 80.6414C47.1756 78.0462 49.915 76.0277 53.087 74.5859C56.2589 73.1441 59.6471 72.4232 63.2516 72.4232C66.856 72.4232 70.2442 73.1441 73.4162 74.5859C76.7323 76.0277 79.5438 78.0462 81.8507 80.6414C84.3017 83.2366 86.176 86.2644 87.4736 89.7247C88.7712 93.185 89.42 96.9336 89.42 100.971Z" fill="#E7E7E5"/>
<path d="M214.416 129.302C211.389 132.041 208.073 134.06 204.468 135.357C201.008 136.655 197.331 137.304 193.438 137.304C190.987 137.304 188.68 137.015 186.518 136.439C184.355 135.718 182.481 134.709 180.895 133.411C179.309 131.969 178.011 130.383 177.002 128.653C175.993 126.779 175.488 124.688 175.488 122.381C175.488 119.93 175.993 117.767 177.002 115.893C178.155 114.019 179.597 112.433 181.327 111.135C183.202 109.693 185.436 108.612 188.032 107.891C190.627 107.17 193.438 106.81 196.466 106.81C200.071 106.81 203.387 107.17 206.414 107.891C209.586 108.612 212.254 109.549 214.416 110.703V129.302ZM250.75 160.877V91.6711C250.75 83.5971 249.596 76.4602 247.289 70.2605C244.982 64.0608 241.45 58.8704 236.692 54.6892C232.078 50.508 226.239 47.4082 219.174 45.3897C212.254 43.227 203.963 42.1456 194.303 42.1456C185.076 42.1456 176.786 43.0107 169.433 44.7409C162.224 46.3268 155.375 48.4895 148.887 51.2289V78.0462C155.375 75.3068 161.575 73.4325 167.486 72.4232C173.398 71.2698 179.309 70.6931 185.22 70.6931C194.736 70.6931 201.945 72.279 206.847 75.451C211.893 78.4787 214.416 83.4529 214.416 90.3735V92.7524C210.812 91.3106 206.414 90.1572 201.224 89.2922C196.178 88.2829 190.843 87.7783 185.22 87.7783C178.588 87.7783 172.46 88.5713 166.837 90.1572C161.359 91.599 156.529 93.8338 152.347 96.8615C148.31 99.7451 145.138 103.494 142.832 108.107C140.525 112.721 139.371 118.128 139.371 124.328C139.371 130.095 140.381 135.285 142.399 139.899C144.562 144.513 147.445 148.406 151.05 151.577C154.798 154.749 159.124 157.128 164.026 158.714C169.072 160.444 174.335 161.31 179.813 161.31C187.455 161.31 194.015 160.012 199.494 157.417C205.117 154.821 210.019 151.289 214.2 146.82L250.75 160.877Z" fill="#E7E7E5"/>
<path d="M0.75 174.49H250.75V179.16H0.75V174.49Z" fill="#0A27F1"/>
</svg>
