<svg width="200" height="201" viewBox="0 0 200 201" fill="none" xmlns="http://www.w3.org/2000/svg">
<path d="M91.0491 189.41C91.0874 188.211 91.6592 187.257 92.7644 186.546C93.8545 185.85 95.2544 185.529 96.9642 185.583C98.6593 185.638 100.072 186.056 101.203 186.838C102.318 187.634 103.086 188.793 103.505 190.313L102.268 190.58C101.379 188.182 99.627 186.941 97.0112 186.858C95.696 186.815 94.614 187.03 93.7652 187.5C92.9017 187.97 92.4576 188.592 92.4328 189.366C92.4244 189.629 92.4681 189.865 92.5639 190.072C92.6591 190.295 92.7775 190.482 92.919 190.632C93.0454 190.797 93.2523 190.958 93.5399 191.113C93.8129 191.268 94.0578 191.386 94.2747 191.466C94.4911 191.56 94.8095 191.666 95.2301 191.781C95.6506 191.897 95.9843 191.981 96.2314 192.033C96.4779 192.099 96.848 192.192 97.3416 192.31C97.4434 192.328 97.516 192.345 97.5594 192.361C98.1255 192.496 98.5972 192.613 98.9743 192.713C99.351 192.827 99.7852 192.973 100.277 193.15C100.754 193.326 101.15 193.514 101.466 193.714C101.766 193.929 102.065 194.172 102.364 194.445C102.647 194.732 102.856 195.061 102.991 195.431C103.125 195.801 103.185 196.212 103.171 196.665C103.131 197.893 102.574 198.855 101.498 199.552C100.422 200.264 99.0004 200.591 97.2322 200.535C95.5809 200.482 94.2109 200.094 93.1223 199.372C92.0332 198.664 91.306 197.617 90.9407 196.23L92.1561 195.962C92.4449 196.995 93.0193 197.789 93.8793 198.343C94.7392 198.897 95.8341 199.195 97.1639 199.238C98.5814 199.283 99.7073 199.07 100.541 198.6C101.361 198.143 101.783 197.513 101.809 196.709C101.819 196.403 101.769 196.123 101.66 195.871C101.551 195.619 101.375 195.394 101.133 195.196C100.89 195.012 100.64 194.843 100.381 194.689C100.122 194.549 99.7832 194.407 99.3637 194.261C98.929 194.131 98.5448 194.023 98.211 193.939C97.8627 193.855 97.4268 193.761 96.9035 193.656C96.4826 193.555 96.1634 193.472 95.9461 193.406C95.7283 193.355 95.4238 193.272 95.0325 193.158C94.6261 193.057 94.3147 192.959 94.0983 192.864C93.8815 192.784 93.6144 192.673 93.2971 192.532C92.9652 192.389 92.7064 192.249 92.5206 192.112C92.3348 191.974 92.1354 191.807 91.9223 191.61C91.6945 191.412 91.5255 191.21 91.4151 191.001C91.3047 190.793 91.2175 190.549 91.1533 190.269C91.074 190.003 91.0393 189.717 91.0491 189.41Z" fill="#E7E7E5"/>
<path d="M68.2296 190.563L69.5527 190.633C69.645 191.947 70.0636 193.041 70.8086 193.914C71.5395 194.783 72.5673 195.401 73.8922 195.766C75.6821 196.26 77.2264 196.133 78.5251 195.384C79.8096 194.631 80.7125 193.31 81.2337 191.422C81.7548 189.533 81.657 187.936 80.9402 186.631C80.2235 185.326 78.9631 184.425 77.159 183.927C75.7637 183.542 74.4897 183.57 73.3368 184.01C72.1699 184.446 71.2736 185.276 70.648 186.499L69.4613 185.853C70.2672 184.361 71.3897 183.344 72.8288 182.801C74.2679 182.257 75.8261 182.217 77.5032 182.68C79.6455 183.271 81.1849 184.371 82.1213 185.979C83.0397 187.598 83.1878 189.534 82.5655 191.789C81.9394 194.058 80.819 195.645 79.2044 196.549C77.5757 197.45 75.6903 197.605 73.548 197.013C72.0258 196.593 70.7907 195.82 69.8426 194.694C68.8945 193.568 68.3568 192.191 68.2296 190.563Z" fill="#E7E7E5"/>
<path d="M55.6105 180.612L54.0816 179.751L52.7704 172.066L54.261 172.906L55.6105 180.612ZM63.7398 178.242L56.7033 190.74L50.2631 187.115C48.8999 186.347 48.0122 185.361 47.6001 184.156C47.188 182.95 47.294 181.794 47.918 180.685C48.5277 179.602 49.4267 178.959 50.6151 178.756C51.7836 178.558 53.0685 178.853 54.4699 179.642L59.7253 182.601L62.555 177.575L63.7398 178.242ZM59.0798 183.748L54.0346 180.907C51.6649 179.573 50.0102 179.741 49.0706 181.41C48.5972 182.25 48.5272 183.075 48.8606 183.884C49.1868 184.705 49.936 185.446 51.1081 186.105L56.1533 188.946L59.0798 183.748Z" fill="#E7E7E5"/>
<path d="M36.5374 174.404C38.055 174.308 39.486 173.548 40.8304 172.122C42.1749 170.697 42.8511 169.235 42.8592 167.735C42.8465 166.236 42.1702 164.854 40.8302 163.59C39.4903 162.326 38.0768 161.736 36.5899 161.82C35.093 161.916 33.6723 162.676 32.3279 164.101C30.9834 165.526 30.3075 166.999 30.3 168.519C30.2819 170.03 30.9376 171.412 32.2669 172.667C33.5963 173.921 35.0198 174.5 36.5374 174.404ZM41.8354 173.071C40.2201 174.783 38.4827 175.676 36.6231 175.751C34.7429 175.827 32.9999 175.107 31.3941 173.592C30.4156 172.669 29.7336 171.623 29.348 170.455C28.9623 169.288 28.9368 168.058 29.2716 166.765C29.5856 165.474 30.2694 164.269 31.3229 163.153C32.9382 161.441 34.6756 160.547 36.5352 160.472C38.3846 160.408 40.1123 161.133 41.7182 162.648C43.324 164.164 44.154 165.851 44.2082 167.711C44.2417 169.572 43.4508 171.358 41.8354 173.071Z" fill="#E7E7E5"/>
<path d="M19.59 160.032L18.848 158.893L29.7644 151.784L23.7327 142.521L24.8354 141.803L31.6091 152.205L19.59 160.032Z" fill="#E7E7E5"/>
<path d="M8.34932 140.612L7.87997 139.336L20.1063 134.84L16.291 124.466L17.526 124.011L21.8107 135.662L8.34932 140.612Z" fill="#E7E7E5"/>
<path d="M14.3371 104.628L0 104.22L0.174802 98.0816C0.232653 96.0501 0.95217 94.4105 2.33335 93.1627C3.71454 91.9149 5.47201 91.3213 7.60576 91.3821C9.7249 91.4425 11.424 92.1271 12.7032 93.436C13.9681 94.7299 14.571 96.4146 14.5119 98.4898L14.3371 104.628ZM13.0385 103.231L13.1678 98.6929C13.2206 96.8368 12.7572 95.3902 11.7775 94.3531C10.7832 93.3156 9.34337 92.7699 7.45807 92.7162C5.58738 92.663 4.13347 93.1262 3.09633 94.1059C2.05961 95.071 1.51461 96.4888 1.46134 98.3595L1.33211 102.897L13.0385 103.231Z" fill="#E7E7E5"/>
<path d="M5.06858 78.7678C5.86003 80.0663 7.19932 80.9786 9.08647 81.505C10.9736 82.0313 12.5828 81.9489 13.914 81.2576C15.235 80.5484 16.143 79.3065 16.6379 77.5321C17.1328 75.7576 16.9967 74.2321 16.2295 72.9556C15.4482 71.6752 14.114 70.7718 12.2268 70.2455C10.3397 69.7191 8.7215 69.8067 7.3723 70.508C6.02702 71.1954 5.10889 72.4192 4.6179 74.1796C4.12692 75.94 4.27714 77.4694 5.06858 78.7678ZM8.71528 82.8358C6.44789 82.2035 4.8482 81.0818 3.91621 79.471C2.97407 77.8421 2.79956 75.9644 3.39267 73.8379C3.75404 72.5422 4.36172 71.4519 5.21571 70.5668C6.0697 69.6818 7.14644 69.0866 8.44592 68.7811C9.73525 68.4577 11.1193 68.5022 12.598 68.9146C14.8654 69.547 16.4651 70.6686 17.3971 72.2795C18.315 73.8864 18.4774 75.7531 17.8843 77.8797C17.2912 80.0062 16.1841 81.5265 14.5631 82.4405C12.9319 83.3365 10.9827 83.4682 8.71528 82.8358Z" fill="#E7E7E5"/>
<path d="M17.985 47.1466L26.0383 57.4006L24.8043 59.2926L9.3643 56.7103L10.203 55.4244L23.5768 57.6017L24.413 57.8853L24.5807 57.6281L23.9841 56.9771L15.8941 46.6992L17.0923 44.8623L29.831 48.0131L30.6553 48.315L30.823 48.0579L30.2264 47.4069L22.4958 36.5779L23.3106 35.3288L32.2926 47.812L31.0585 49.704L18.3325 46.6139L17.4404 46.2153L17.2966 46.4357L17.985 47.1466Z" fill="#E7E7E5"/>
<path d="M40.4244 20.2528L41.4928 19.3767L50.5879 30.4672L49.2143 31.5936L33.3355 28.2786L41.3458 38.0464L40.2944 38.9086L31.1994 27.8181L32.556 26.7056L48.407 29.9867L40.4244 20.2528Z" fill="#E7E7E5"/>
<path d="M66.306 14.6084L75.7829 11.4841L76.1674 12.6504L66.6905 15.7748L66.306 14.6084Z" fill="#E7E7E5"/>
<path d="M109.42 11.6986C109.375 12.8966 108.798 13.848 107.689 14.5526C106.595 15.2431 105.194 15.5563 103.484 15.4923C101.79 15.4287 100.379 15.0028 99.2527 14.2144C98.1415 13.4119 97.3804 12.2495 96.9693 10.7271L98.2081 10.4663C99.0836 12.8693 100.829 14.1198 103.444 14.2179C104.759 14.2672 105.842 14.059 106.694 13.5935C107.56 13.1285 108.007 12.5088 108.036 11.7345C108.046 11.4715 108.004 11.2358 107.909 11.0274C107.815 10.8044 107.698 10.6172 107.557 10.4656C107.432 10.2999 107.226 10.1386 106.939 9.98152C106.667 9.82501 106.423 9.70612 106.206 9.62486C105.99 9.52898 105.672 9.42196 105.253 9.30381C104.833 9.18565 104.499 9.10001 104.253 9.04687C104.006 8.97911 103.637 8.88479 103.144 8.7639C103.042 8.74545 102.97 8.72811 102.926 8.71185C102.361 8.57361 101.89 8.45354 101.513 8.35164C101.137 8.23513 100.704 8.0872 100.213 7.90787C99.7372 7.72908 99.342 7.5387 99.0276 7.33671C98.7285 7.12067 98.4304 6.8754 98.1335 6.60091C97.8517 6.31236 97.6446 5.98272 97.5122 5.61198C97.3797 5.24124 97.322 4.82941 97.339 4.37649C97.385 3.14921 97.9477 2.19003 99.027 1.49894C100.107 0.793236 101.531 0.473517 103.299 0.539782C104.95 0.601666 106.317 0.996763 107.402 1.72507C108.487 2.43877 109.209 3.48998 109.566 4.8787L108.349 5.14034C108.066 4.10556 107.496 3.30875 106.639 2.74992C105.783 2.19108 104.689 1.88675 103.36 1.83691C101.943 1.78379 100.816 1.99027 99.9787 2.45636C99.1571 2.90838 98.7312 3.53618 98.7011 4.33976C98.6896 4.64658 98.7376 4.92636 98.8452 5.17912C98.9527 5.43188 99.1272 5.65788 99.3684 5.85713C99.6102 6.04176 99.8599 6.21206 100.117 6.36802C100.375 6.50938 100.714 6.65374 101.133 6.80111C101.567 6.93443 101.95 7.04391 102.283 7.12955C102.631 7.21575 103.067 7.31254 103.589 7.41991C104.01 7.52346 104.329 7.60856 104.545 7.67522C104.763 7.72726 105.067 7.81181 105.458 7.92887C105.864 8.03187 106.174 8.13131 106.39 8.22718C106.607 8.30845 106.873 8.42086 107.19 8.5644C107.521 8.70849 107.779 8.84984 107.964 8.98845C108.149 9.12707 108.347 9.29545 108.559 9.4936C108.786 9.6923 108.954 9.89611 109.063 10.105C109.172 10.314 109.258 10.5586 109.321 10.8389C109.399 11.1052 109.432 11.3917 109.42 11.6986Z" fill="#E7E7E5"/>
<path d="M132.246 10.67L130.923 10.5933C130.838 9.27819 130.426 8.18211 129.685 7.3051C128.959 6.43205 127.935 5.8091 126.612 5.43623C124.825 4.93247 123.28 5.05143 121.977 5.79311C120.689 6.53876 119.778 7.85443 119.247 9.74012C118.715 11.6258 118.804 13.2231 119.514 14.532C120.223 15.8409 121.479 16.7493 123.28 17.257C124.673 17.6497 125.948 17.6291 127.103 17.1952C128.272 16.7653 129.173 15.9407 129.805 14.7214L130.988 15.3739C130.174 16.861 129.046 17.8721 127.604 18.4075C126.162 18.9428 124.604 18.9744 122.929 18.5024C120.79 17.8995 119.257 16.7913 118.329 15.1779C117.42 13.5544 117.282 11.6168 117.917 9.36528C118.556 7.09963 119.685 5.51909 121.304 4.62365C122.938 3.73218 124.824 3.5879 126.963 4.19083C128.483 4.61923 129.714 5.39911 130.656 6.53046C131.598 7.66181 132.128 9.04165 132.246 10.67Z" fill="#E7E7E5"/>
<path d="M144.812 20.6937L146.336 21.5629L147.605 29.2545L146.119 28.4071L144.812 20.6937ZM136.67 23.0185L143.775 10.5591L150.195 14.2204C151.554 14.9953 152.436 15.9865 152.842 17.194C153.247 18.4014 153.135 19.5576 152.505 20.6625C151.889 21.7421 150.987 22.3803 149.797 22.5772C148.628 22.7686 147.344 22.466 145.947 21.6693L140.708 18.6816L137.851 23.692L136.67 23.0185ZM141.36 17.5386L146.39 20.4067C148.752 21.7539 150.408 21.5956 151.356 19.9318C151.834 19.0935 151.909 18.2692 151.58 17.4589C151.258 16.6359 150.513 15.8912 149.345 15.2249L144.315 12.3567L141.36 17.5386Z" fill="#E7E7E5"/>
<path d="M163.85 27.0058C162.332 27.0933 160.896 27.8459 159.544 29.2636C158.192 30.6812 157.508 32.14 157.491 33.6399C157.496 35.1392 158.164 36.5247 159.497 37.7962C160.83 39.0678 162.241 39.6653 163.728 39.5888C165.225 39.5018 166.65 38.7494 168.002 37.3318C169.355 35.9141 170.039 34.445 170.055 32.9245C170.081 31.414 169.433 30.0281 168.111 28.7666C166.788 27.5052 165.368 26.9182 163.85 27.0058ZM158.544 28.3099C160.169 26.6066 161.911 25.7227 163.771 25.6581C165.652 25.593 167.391 26.3224 168.989 27.8462C169.962 28.7746 170.638 29.8238 171.017 30.9938C171.397 32.1637 171.415 33.3939 171.073 34.6843C170.752 35.9742 170.062 37.1746 169.002 38.2854C167.378 39.9887 165.635 40.8726 163.775 40.9372C161.925 40.9912 160.202 40.2563 158.604 38.7325C157.007 37.2087 156.186 35.5166 156.142 33.6562C156.119 31.7953 156.92 30.0132 158.544 28.3099Z" fill="#E7E7E5"/>
<path d="M180.718 41.4694L181.453 42.6129L170.498 49.6616L176.479 58.9571L175.372 59.669L168.656 49.2301L180.718 41.4694Z" fill="#E7E7E5"/>
<path d="M191.852 60.9495L192.314 62.2283L180.063 66.6576L183.821 77.0523L182.584 77.4997L178.363 65.8262L191.852 60.9495Z" fill="#E7E7E5"/>
<path d="M185.665 96.9011L200 97.3883L199.791 103.525C199.722 105.557 198.994 107.192 197.606 108.432C196.218 109.673 194.457 110.256 192.324 110.184C190.205 110.112 188.51 109.418 187.238 108.102C185.98 106.801 185.386 105.113 185.457 103.038L185.665 96.9011ZM186.956 98.3055L186.802 102.843C186.739 104.698 187.194 106.148 188.168 107.19C189.157 108.233 190.594 108.787 192.479 108.851C194.349 108.914 195.806 108.459 196.848 107.485C197.89 106.526 198.443 105.111 198.506 103.24L198.661 98.7033L186.956 98.3055Z" fill="#E7E7E5"/>
<path d="M194.792 122.812C194.008 121.51 192.674 120.59 190.789 120.053C188.905 119.516 187.296 119.59 185.961 120.274C184.636 120.976 183.721 122.213 183.216 123.985C182.711 125.756 182.839 127.282 183.599 128.563C184.374 129.848 185.703 130.759 187.587 131.295C189.471 131.832 191.09 131.753 192.443 131.059C193.792 130.38 194.717 129.161 195.218 127.403C195.718 125.645 195.576 124.115 194.792 122.812ZM191.168 118.724C193.432 119.369 195.025 120.5 195.948 122.116C196.882 123.75 197.046 125.628 196.441 127.752C196.072 129.045 195.459 130.132 194.6 131.012C193.741 131.893 192.661 132.482 191.36 132.78C190.069 133.097 188.685 133.045 187.209 132.624C184.945 131.979 183.351 130.849 182.428 129.233C181.519 127.621 181.367 125.753 181.972 123.63C182.577 121.507 183.692 119.993 185.318 119.088C186.954 118.201 188.904 118.08 191.168 118.724Z" fill="#E7E7E5"/>
<path d="M181.701 154.363L173.704 144.065L174.948 142.18L190.374 144.847L189.528 146.128L176.166 143.877L175.332 143.589L175.163 143.845L175.756 144.5L183.789 154.822L182.581 156.652L169.86 153.431L169.037 153.125L168.868 153.381L169.461 154.035L177.132 164.907L176.31 166.151L167.397 153.619L168.641 151.734L181.35 154.894L182.24 155.297L182.385 155.078L181.701 154.363Z" fill="#E7E7E5"/>
<path d="M159.114 181.133L158.04 182.003L149.007 170.863L150.386 169.744L166.247 173.146L158.29 163.335L159.346 162.478L168.38 173.619L167.017 174.724L151.185 171.355L159.114 181.133Z" fill="#E7E7E5"/>
<path d="M133.201 186.634L123.707 189.706L123.329 188.538L132.823 185.466L133.201 186.634Z" fill="#E7E7E5"/>
</svg>
